<svg width="16" height="16" viewBox="0 0 16 16" fill="none" xmlns="http://www.w3.org/2000/svg">
<g id="24 / basic / search">
<path id="icon" fill-rule="evenodd" clip-rule="evenodd" d="M6.66659 12C3.72107 12 1.33325 9.6122 1.33325 6.66668C1.33325 3.72116 3.72107 1.33334 6.66659 1.33334C9.6121 1.33334 11.9999 3.72116 11.9999 6.66668C11.9999 7.89915 11.5819 9.03397 10.8798 9.93709L14.4713 13.5286L13.5285 14.4714L9.93703 10.8799C9.0339 11.582 7.89907 12 6.66659 12ZM10.6666 6.66668C10.6666 8.87582 8.87572 10.6667 6.66659 10.6667C4.45745 10.6667 2.66659 8.87582 2.66659 6.66668C2.66659 4.45754 4.45745 2.66668 6.66659 2.66668C8.87572 2.66668 10.6666 4.45754 10.6666 6.66668Z" fill="black"/>
</g>
</svg>
